<mxfile host="app.diagrams.net" modified="2024-01-03T02:41:41.637Z" agent="Mozilla/5.0 (Macintosh; Intel Mac OS X 10_15_7) AppleWebKit/537.36 (KHTML, like Gecko) Chrome/120.0.0.0 Safari/537.36" etag="LPuAWUYVNP1vf2g_m7ED" version="22.1.16" type="github">
  <diagram name="Page-1" id="52a04d89-c75d-2922-d76d-85b35f80e030">
    <mxGraphModel dx="1242" dy="294" grid="0" gridSize="10" guides="1" tooltips="1" connect="1" arrows="1" fold="1" page="0" pageScale="1" pageWidth="1100" pageHeight="850" background="none" math="0" shadow="0">
      <root>
        <mxCell id="0" />
        <mxCell id="1" parent="0" />
        <mxCell id="cSUYfSMlRrSCBEyKJaSE-3" value="" style="edgeStyle=orthogonalEdgeStyle;rounded=0;orthogonalLoop=1;jettySize=auto;html=1;" edge="1" parent="1" source="cSUYfSMlRrSCBEyKJaSE-1" target="cSUYfSMlRrSCBEyKJaSE-2">
          <mxGeometry relative="1" as="geometry" />
        </mxCell>
        <mxCell id="cSUYfSMlRrSCBEyKJaSE-1" value="设计模型" style="ellipse;whiteSpace=wrap;html=1;" vertex="1" parent="1">
          <mxGeometry x="316" y="548" width="120" height="80" as="geometry" />
        </mxCell>
        <mxCell id="cSUYfSMlRrSCBEyKJaSE-5" value="" style="edgeStyle=orthogonalEdgeStyle;rounded=0;orthogonalLoop=1;jettySize=auto;html=1;" edge="1" parent="1" source="cSUYfSMlRrSCBEyKJaSE-2" target="cSUYfSMlRrSCBEyKJaSE-4">
          <mxGeometry relative="1" as="geometry" />
        </mxCell>
        <mxCell id="cSUYfSMlRrSCBEyKJaSE-2" value="研发开发" style="whiteSpace=wrap;html=1;" vertex="1" parent="1">
          <mxGeometry x="316" y="660" width="120" height="47" as="geometry" />
        </mxCell>
        <mxCell id="cSUYfSMlRrSCBEyKJaSE-4" value="结束" style="ellipse;whiteSpace=wrap;html=1;" vertex="1" parent="1">
          <mxGeometry x="336" y="742" width="80" height="80" as="geometry" />
        </mxCell>
        <mxCell id="cSUYfSMlRrSCBEyKJaSE-20" value="" style="edgeStyle=orthogonalEdgeStyle;rounded=0;orthogonalLoop=1;jettySize=auto;html=1;" edge="1" parent="1" source="cSUYfSMlRrSCBEyKJaSE-18" target="cSUYfSMlRrSCBEyKJaSE-19">
          <mxGeometry relative="1" as="geometry" />
        </mxCell>
        <mxCell id="cSUYfSMlRrSCBEyKJaSE-18" value="设计模型" style="ellipse;whiteSpace=wrap;html=1;" vertex="1" parent="1">
          <mxGeometry x="663" y="494" width="120" height="80" as="geometry" />
        </mxCell>
        <mxCell id="cSUYfSMlRrSCBEyKJaSE-22" value="" style="edgeStyle=orthogonalEdgeStyle;rounded=0;orthogonalLoop=1;jettySize=auto;html=1;" edge="1" parent="1" source="cSUYfSMlRrSCBEyKJaSE-19" target="cSUYfSMlRrSCBEyKJaSE-21">
          <mxGeometry relative="1" as="geometry" />
        </mxCell>
        <mxCell id="cSUYfSMlRrSCBEyKJaSE-19" value="研发理解需求" style="whiteSpace=wrap;html=1;" vertex="1" parent="1">
          <mxGeometry x="663" y="605" width="120" height="60" as="geometry" />
        </mxCell>
        <mxCell id="cSUYfSMlRrSCBEyKJaSE-24" value="" style="edgeStyle=orthogonalEdgeStyle;rounded=0;orthogonalLoop=1;jettySize=auto;html=1;" edge="1" parent="1" source="cSUYfSMlRrSCBEyKJaSE-21" target="cSUYfSMlRrSCBEyKJaSE-23">
          <mxGeometry relative="1" as="geometry" />
        </mxCell>
        <mxCell id="cSUYfSMlRrSCBEyKJaSE-21" value="研发开发" style="whiteSpace=wrap;html=1;" vertex="1" parent="1">
          <mxGeometry x="663" y="696" width="120" height="60" as="geometry" />
        </mxCell>
        <mxCell id="cSUYfSMlRrSCBEyKJaSE-23" value="结束" style="ellipse;whiteSpace=wrap;html=1;" vertex="1" parent="1">
          <mxGeometry x="683" y="775" width="80" height="80" as="geometry" />
        </mxCell>
        <mxCell id="cSUYfSMlRrSCBEyKJaSE-27" value="" style="edgeStyle=orthogonalEdgeStyle;rounded=0;orthogonalLoop=1;jettySize=auto;html=1;" edge="1" parent="1" source="cSUYfSMlRrSCBEyKJaSE-25" target="cSUYfSMlRrSCBEyKJaSE-26">
          <mxGeometry relative="1" as="geometry" />
        </mxCell>
        <mxCell id="cSUYfSMlRrSCBEyKJaSE-25" value="DEV" style="whiteSpace=wrap;html=1;" vertex="1" parent="1">
          <mxGeometry x="166" y="881" width="120" height="60" as="geometry" />
        </mxCell>
        <mxCell id="cSUYfSMlRrSCBEyKJaSE-29" value="" style="edgeStyle=orthogonalEdgeStyle;rounded=0;orthogonalLoop=1;jettySize=auto;html=1;" edge="1" parent="1" source="cSUYfSMlRrSCBEyKJaSE-26" target="cSUYfSMlRrSCBEyKJaSE-28">
          <mxGeometry relative="1" as="geometry" />
        </mxCell>
        <mxCell id="cSUYfSMlRrSCBEyKJaSE-26" value="TEST" style="whiteSpace=wrap;html=1;" vertex="1" parent="1">
          <mxGeometry x="336" y="881" width="120" height="60" as="geometry" />
        </mxCell>
        <mxCell id="cSUYfSMlRrSCBEyKJaSE-31" value="" style="edgeStyle=orthogonalEdgeStyle;rounded=0;orthogonalLoop=1;jettySize=auto;html=1;" edge="1" parent="1" source="cSUYfSMlRrSCBEyKJaSE-28" target="cSUYfSMlRrSCBEyKJaSE-30">
          <mxGeometry relative="1" as="geometry" />
        </mxCell>
        <mxCell id="cSUYfSMlRrSCBEyKJaSE-28" value="STAGE" style="whiteSpace=wrap;html=1;" vertex="1" parent="1">
          <mxGeometry x="518" y="881" width="120" height="60" as="geometry" />
        </mxCell>
        <mxCell id="cSUYfSMlRrSCBEyKJaSE-30" value="PROD" style="whiteSpace=wrap;html=1;" vertex="1" parent="1">
          <mxGeometry x="682" y="881" width="120" height="60" as="geometry" />
        </mxCell>
      </root>
    </mxGraphModel>
  </diagram>
</mxfile>
